<?xml version="1.0" standalone="no"?>
<!DOCTYPE svg PUBLIC "-//W3C//DTD SVG 20010904//EN"
 "http://www.w3.org/TR/2001/REC-SVG-20010904/DTD/svg10.dtd">
<svg version="1.0" xmlns="http://www.w3.org/2000/svg"
 width="612.000000pt" height="612.000000pt" viewBox="0 0 612.000000 612.000000"
 preserveAspectRatio="xMidYMid meet">
<metadata>
Created by potrace 1.14, written by Peter Selinger 2001-2017
</metadata>
<g transform="translate(0.000000,612.000000) scale(0.100000,-0.100000)"
fill="#000000" stroke="none">
<path d="M2718 6045 c-2 -2 -59 -6 -128 -9 -119 -6 -161 -9 -290 -22 -432 -42
-798 -145 -969 -272 -102 -76 -172 -178 -189 -272 -10 -53 -8 -525 2 -625 9
-87 13 -114 32 -195 9 -36 17 -72 19 -80 22 -94 106 -245 200 -360 37 -45 219
-224 310 -305 147 -131 279 -250 416 -375 16 -14 54 -47 86 -75 120 -104 299
-291 325 -341 l28 -51 -28 -53 c-26 -51 -197 -233 -348 -370 -34 -30 -100 -91
-149 -135 -48 -44 -100 -91 -115 -105 -285 -259 -479 -453 -541 -542 -13 -18
-26 -35 -31 -38 -14 -11 -87 -130 -112 -183 -46 -102 -76 -220 -92 -362 -13
-118 -11 -537 2 -603 54 -263 366 -451 904 -546 47 -8 110 -18 140 -21 30 -4
64 -9 75 -11 11 -2 55 -7 97 -10 43 -3 87 -7 98 -9 132 -25 1119 -25 1280 0
14 2 59 7 100 10 41 3 86 8 100 10 14 2 45 7 70 10 105 14 273 47 377 75 377
99 602 261 659 474 14 50 20 478 9 586 -33 317 -102 472 -321 717 -69 76 -223
229 -298 295 -27 24 -76 69 -109 101 -33 31 -62 57 -65 57 -2 0 -16 12 -31 28
-14 15 -76 72 -136 127 -152 139 -262 243 -304 289 -94 101 -121 135 -121 152
0 7 -5 14 -11 16 -20 7 -12 64 16 109 31 47 254 274 370 374 37 33 76 67 84
75 9 9 59 54 111 100 52 47 100 90 106 95 6 6 48 44 94 85 174 156 318 295
361 350 132 168 192 293 225 465 5 22 9 42 9 45 2 6 14 120 20 185 3 28 6 161
6 297 1 197 -2 257 -15 300 -37 124 -129 221 -294 306 -71 38 -251 104 -314
116 -13 2 -61 13 -108 24 -47 11 -110 23 -140 27 -30 4 -57 8 -60 10 -3 1 -32
6 -65 9 -33 4 -71 9 -85 11 -43 6 -238 23 -355 31 -85 6 -902 14 -907 9z m902
-199 c163 -13 256 -22 320 -31 14 -2 45 -6 70 -9 25 -3 54 -8 65 -10 11 -2 40
-7 65 -10 51 -7 52 -8 135 -25 33 -8 65 -14 70 -16 60 -12 193 -56 245 -80
195 -91 192 -199 -8 -288 -80 -36 -204 -78 -210 -72 -3 3 -10 1 -16 -4 -9 -7
-128 -38 -216 -55 -14 -3 -36 -8 -50 -11 -14 -3 -36 -7 -50 -10 -14 -3 -34 -7
-45 -9 -40 -8 -172 -26 -225 -32 -19 -2 -57 -6 -85 -9 -334 -37 -812 -37
-1165 0 -139 14 -204 22 -240 30 -14 3 -38 7 -55 10 -16 2 -43 7 -60 11 -16 3
-39 7 -50 9 -49 8 -138 27 -230 51 -96 24 -126 33 -170 50 -11 4 -26 8 -32 10
-39 8 -167 81 -192 110 -59 66 -20 142 103 203 54 26 230 83 296 94 14 3 59
12 100 20 79 16 113 22 195 32 28 4 61 8 75 10 14 3 56 7 95 11 38 3 81 7 95
10 14 2 86 7 160 10 74 3 137 8 139 10 6 6 787 -3 871 -10z m-2243 -567 c6 -6
17 -12 24 -13 8 -2 48 -19 89 -39 41 -19 118 -49 170 -67 121 -41 125 -42 126
-38 0 2 8 -3 17 -11 10 -7 17 -11 17 -8 0 3 15 1 33 -4 17 -6 39 -12 47 -14 8
-2 47 -11 85 -20 39 -9 81 -18 95 -20 14 -2 36 -6 50 -9 14 -3 41 -8 60 -10
19 -3 51 -8 70 -11 54 -9 100 -14 165 -20 33 -3 76 -8 95 -10 58 -8 221 -18
293 -19 37 0 67 -5 67 -10 0 -4 6 -4 13 1 6 6 21 9 32 7 52 -10 478 -2 640 11
146 12 173 14 220 19 28 3 59 7 70 10 11 2 45 7 76 10 59 7 83 11 134 22 17 4
41 8 55 10 14 1 25 3 25 4 0 1 11 3 25 6 14 2 70 16 125 30 55 14 107 27 116
29 8 2 32 10 52 19 20 8 37 13 37 10 0 -3 6 -2 13 3 6 4 14 8 17 9 3 0 14 4
25 8 11 4 34 13 50 19 17 6 59 24 95 41 36 16 67 30 70 31 3 0 19 9 37 18 18
9 34 17 35 17 8 0 -2 -520 -11 -569 -17 -91 -71 -227 -100 -251 -3 -3 -24 -27
-46 -55 -63 -79 -209 -230 -381 -392 -162 -152 -307 -288 -387 -363 -359 -336
-488 -496 -483 -600 2 -40 45 -156 64 -170 4 -3 20 -24 35 -47 28 -40 61 -78
151 -173 43 -44 304 -294 348 -332 66 -57 321 -300 443 -423 338 -339 366
-405 369 -899 2 -271 -7 -331 -63 -413 -27 -39 -101 -106 -121 -109 -3 0 -30
-12 -60 -26 -48 -23 -155 -64 -185 -72 -5 -1 -36 -10 -68 -20 -82 -24 -257
-62 -352 -76 -119 -17 -125 -18 -195 -26 -36 -4 -74 -8 -85 -10 -146 -18 -847
-26 -1050 -12 -145 10 -235 18 -280 23 -22 3 -60 8 -85 11 -51 6 -203 31 -240
39 -14 4 -36 8 -50 11 -56 11 -255 66 -272 75 -11 6 -27 12 -36 14 -9 1 -44
15 -77 30 -33 16 -65 29 -72 31 -18 3 -75 44 -103 74 -36 38 -57 72 -80 131
-18 49 -19 73 -16 343 2 231 6 307 20 371 44 200 131 314 526 685 79 74 176
165 215 202 39 37 80 75 91 85 52 45 283 264 335 318 140 144 222 273 225 354
5 93 -94 231 -326 461 -128 126 -185 180 -360 340 -214 196 -440 416 -528 515
-106 120 -166 233 -187 350 -11 63 -18 575 -8 575 5 0 14 -5 20 -11z"/>
<path d="M1842 4501 c61 -86 348 -379 638 -651 222 -209 436 -425 471 -477 32
-46 64 -126 74 -184 3 -19 10 -50 15 -69 4 -19 11 -55 14 -80 3 -25 13 -88 22
-140 9 -52 17 -101 17 -108 1 -48 28 60 43 173 2 22 7 51 9 65 3 14 7 41 10
60 11 71 38 176 58 220 38 82 148 200 552 585 332 317 514 504 595 609 9 12
-20 1 -85 -31 -55 -28 -134 -65 -175 -82 -41 -18 -84 -36 -95 -41 -26 -11
-175 -63 -240 -84 -50 -16 -194 -51 -250 -61 -16 -2 -41 -7 -55 -10 -166 -31
-508 -37 -646 -11 -10 2 -39 7 -64 10 -107 15 -382 84 -415 104 -5 4 -16 7
-23 8 -26 4 -178 68 -292 122 -213 102 -192 94 -178 73z"/>
<path d="M3062 1774 c-46 -92 -106 -168 -160 -202 -90 -57 -294 -155 -557
-269 -286 -124 -565 -268 -565 -293 0 -5 -8 -11 -18 -14 -15 -5 -88 -73 -127
-119 -18 -22 -55 -94 -55 -109 0 -15 57 -41 184 -83 81 -27 256 -74 291 -79
11 -2 58 -10 105 -19 93 -17 130 -23 205 -32 28 -3 64 -8 80 -10 17 -3 64 -7
105 -10 41 -3 107 -8 145 -12 98 -9 699 -8 820 1 151 12 296 26 325 31 8 1 40
6 70 10 30 4 64 9 75 11 27 5 62 12 105 19 19 3 43 8 52 11 9 3 25 6 35 8 85
17 287 77 341 102 18 8 42 17 54 19 12 3 28 11 36 18 35 36 -95 196 -237 291
-74 49 -243 138 -361 189 -420 182 -718 330 -762 377 -21 22 -95 140 -122 193
-11 20 -22 37 -25 37 -4 0 -21 -30 -39 -66z"/>
</g>
</svg>
